<?xml version="1.0" encoding="utf-8"?>
<!-- Generator: Adobe Illustrator 25.1.0, SVG Export Plug-In . SVG Version: 6.00 Build 0)  -->
<svg version="1.1" id="Layer_1" xmlns="http://www.w3.org/2000/svg" xmlns:xlink="http://www.w3.org/1999/xlink" x="0px" y="0px"
	 viewBox="0 0 800 500" style="enable-background:new 0 0 800 500;" xml:space="preserve">
<style type="text/css">
	.st0{fill-rule:evenodd;clip-rule:evenodd;fill:url(#SVGID_1_);}
	.st1{fill:none;stroke:#D3629D;stroke-width:3;}
	.st2{fill-rule:evenodd;clip-rule:evenodd;fill:url(#SVGID_2_);}
	.st3{fill-rule:evenodd;clip-rule:evenodd;fill:#D3629D;}
</style>
<g>
	
		<linearGradient id="SVGID_1_" gradientUnits="userSpaceOnUse" x1="-197.8662" y1="-48.7261" x2="-197.3214" y2="-49.1049" gradientTransform="matrix(257.1818 472.5476 372.4172 -202.6862 69598.5469 83769.7891)">
		<stop  offset="0" style="stop-color:#9975D0"/>
		<stop  offset="1" style="stop-color:#4A3FDB"/>
	</linearGradient>
	<path class="st0" d="M362.5,137.8c18.3-66.6,136.6-30.3,247.9,24.2s177.2,73.3,153.3,160.4S634.8,496.1,531.8,448.6
		C428.7,401.3,344.2,204.5,362.5,137.8L362.5,137.8z"/>
	<g>
		<path class="st1" d="M139.9,406.4l19.6-17.4l19.6,17.4l19.6-17.4l19.6,17.4l19.6-17.4"/>
		<path class="st1" d="M139.9,422l19.6-17.4l19.6,17.4l19.6-17.4l19.6,17.4l19.6-17.4"/>
		<path class="st1" d="M139.9,437.6l19.6-17.4l19.6,17.4l19.6-17.4l19.6,17.4l19.6-17.4"/>
		<path class="st1" d="M139.9,453.1l19.6-17.4l19.6,17.4l19.6-17.4l19.6,17.4l19.6-17.4"/>
	</g>
	
		<linearGradient id="SVGID_2_" gradientUnits="userSpaceOnUse" x1="32.4028" y1="293.64" x2="446.8357" y2="293.64" gradientTransform="matrix(0.9439 0.3303 0.3303 -0.9439 -86.3052 406.518)">
		<stop  offset="0" style="stop-color:#C8D1E5"/>
		<stop  offset="1" style="stop-color:#DADFEA"/>
	</linearGradient>
	<path class="st2" d="M459.2,158.5c30.3,59.8-78.5,110.5-194,143.6S90.1,364.5,50.5,286.4C11,208.4,30.1,78,135,45.1
		C240,12.2,428.9,98.8,459.2,158.5L459.2,158.5z"/>
	<g>
		<circle class="st3" cx="55.6" cy="44.6" r="2.2"/>
		<circle class="st3" cx="55.6" cy="60.6" r="2.2"/>
		<circle class="st3" cx="55.6" cy="76.6" r="2.2"/>
		<circle class="st3" cx="55.6" cy="92.6" r="2.2"/>
		<circle class="st3" cx="55.6" cy="108.6" r="2.2"/>
		<circle class="st3" cx="55.6" cy="124.6" r="2.2"/>
		<circle class="st3" cx="55.6" cy="140.6" r="2.2"/>
		<circle class="st3" cx="55.6" cy="156.6" r="2.2"/>
		<circle class="st3" cx="55.6" cy="172.6" r="2.2"/>
		<circle class="st3" cx="71.6" cy="44.6" r="2.2"/>
		<circle class="st3" cx="87.6" cy="44.6" r="2.2"/>
		<circle class="st3" cx="103.6" cy="44.6" r="2.2"/>
		<circle class="st3" cx="119.6" cy="44.6" r="2.2"/>
		<circle class="st3" cx="71.6" cy="60.6" r="2.2"/>
		<circle class="st3" cx="87.6" cy="60.6" r="2.2"/>
		<circle class="st3" cx="103.6" cy="60.6" r="2.2"/>
		<circle class="st3" cx="119.6" cy="60.6" r="2.2"/>
		<circle class="st3" cx="71.6" cy="76.6" r="2.2"/>
		<circle class="st3" cx="87.6" cy="76.6" r="2.2"/>
		<circle class="st3" cx="103.6" cy="76.6" r="2.2"/>
		<circle class="st3" cx="119.6" cy="76.6" r="2.2"/>
		<circle class="st3" cx="71.6" cy="92.6" r="2.2"/>
		<circle class="st3" cx="87.6" cy="92.6" r="2.2"/>
		<circle class="st3" cx="103.6" cy="92.6" r="2.2"/>
		<circle class="st3" cx="119.6" cy="92.6" r="2.2"/>
		<circle class="st3" cx="71.6" cy="108.6" r="2.2"/>
		<circle class="st3" cx="87.6" cy="108.6" r="2.2"/>
		<circle class="st3" cx="103.6" cy="108.6" r="2.2"/>
		<circle class="st3" cx="119.6" cy="108.6" r="2.2"/>
		<circle class="st3" cx="71.6" cy="124.6" r="2.2"/>
		<circle class="st3" cx="87.6" cy="124.6" r="2.2"/>
		<circle class="st3" cx="103.6" cy="124.6" r="2.2"/>
		<circle class="st3" cx="119.6" cy="124.6" r="2.2"/>
		<circle class="st3" cx="71.6" cy="140.6" r="2.2"/>
		<circle class="st3" cx="87.6" cy="140.6" r="2.2"/>
		<circle class="st3" cx="103.6" cy="140.6" r="2.2"/>
		<circle class="st3" cx="119.6" cy="140.6" r="2.2"/>
		<circle class="st3" cx="71.6" cy="156.6" r="2.2"/>
		<circle class="st3" cx="87.6" cy="156.6" r="2.2"/>
		<circle class="st3" cx="103.6" cy="156.6" r="2.2"/>
		<circle class="st3" cx="119.6" cy="156.6" r="2.2"/>
		<circle class="st3" cx="71.6" cy="172.6" r="2.2"/>
		<circle class="st3" cx="87.6" cy="172.6" r="2.2"/>
		<circle class="st3" cx="103.6" cy="172.6" r="2.2"/>
		<circle class="st3" cx="119.6" cy="172.6" r="2.2"/>
	</g>
</g>
</svg>
